<svg id="Layer_1" data-name="Layer 1" xmlns="http://www.w3.org/2000/svg" xmlns:xlink="http://www.w3.org/1999/xlink" viewBox="0 0 26.26 18"><defs><style>.cls-1{fill:none;}.cls-2{clip-path:url(#clip-path);}.cls-3{fill:#9a2f60;}.cls-4{fill:#fff;}</style><clipPath id="clip-path"><rect class="cls-1" width="26.26" height="18"/></clipPath></defs><title>skills-icons</title><g class="cls-2"><path class="cls-3" d="M24.06,16.09c-1.48.17-19.14.38-20.17.28s-1.62,0-1.56-1.32S2,8.91,1.91,8.21s-.33-2.2-.36-3-.38-1,.85-1c1.48,0,9.29,0,10.43.06a76.3,76.3,0,0,0,9,.21c3.08-.22,2.81-.45,2.87.6s0,8.26.13,9.39.71,1.39-.77,1.56M2.09,1.71c.79,0,7.2.08,8.71,0s1.71-.32,1.87.59.3,1.08-.91,1-9-.4-9.6-.31-.64-.05-.74-.61,0-.68.67-.65m24,12.49c-.21-2.33,0-10-.2-11.95S25.07.13,22.85,0,3.09.36,1.52.45C-.21.55,0,.89.05,2.58S.54,15,.81,16.2,1.69,17.9,3.25,18s21-.68,22.12-1,.94-.46.72-2.79"/><path class="cls-3" d="M12.91,8.43c-.54,0-6.18-.39-7.15-.31s-1.14.22-1.51.22-.63.13-.63-.93-.15-1.13.52-1.11,4.27.32,5.16.26a18.19,18.19,0,0,1,3-.17c.47.12.65,0,.68.6s.44,1.41-.1,1.44m10.4-1.55c0-.78-.22-.81-1.22-1S5.75,5.62,4.45,5.61c-.81,0-1.19-.08-1.26.25A17.94,17.94,0,0,0,3.31,8c0,.75,0,.79.83.87S20.29,9,21.25,9a6.76,6.76,0,0,0,2.17-.14c.52-.19-.09-1.21-.11-2"/><path class="cls-3" d="M3.59,8.22c.85-.14,3-1.11,4.1-1.11a30.65,30.65,0,0,0,5-.65c.75-.24,1.35.1.28.4a20.1,20.1,0,0,1-4.28.9c-1.34,0-3.12.82-3.68.82a5.1,5.1,0,0,0-1.19.18Z"/><path class="cls-3" d="M3.49,6.5A14.24,14.24,0,0,0,6.81,7.64c.86.15,6,.39,6.55.49S13.85,8,13,7.84,9,7.09,8.34,7A12,12,0,0,1,5,6.24a1.83,1.83,0,0,0-1.56-.06Z"/><path class="cls-3" d="M14.38,11.1c.5-.15,2.48-.56,3.06-.17s.4.68.41,1.5-.06,1.34.14,1.42.36.59,0,.61a8.32,8.32,0,0,0-2.74.27c-.58.35-1,.29-1.07-.38a17.08,17.08,0,0,0,0-2.34c-.14-.52-.25-.81.12-.91"/><path class="cls-3" d="M20,10.87c.51-.12,2.51-.42,3.06,0s.37.7.32,1.51-.13,1.35.07,1.43.33.62,0,.62a8.24,8.24,0,0,0-2.76.11c-.59.32-1.06.23-1-.44a16.82,16.82,0,0,0,.18-2.33c-.1-.53-.2-.82.18-.91"/><path class="cls-3" d="M13.22,12.71c.22,0,.27,0,.31.83s0,1-.21,1-.22-.18-.26-.95-.05-.85.16-.86"/><path class="cls-3" d="M13,8.27c.22,0,.27,0,.31.84s0,1-.21,1-.23-.17-.27-.95,0-.85.17-.86"/><path class="cls-3" d="M12.72,4.5c.22,0,.27,0,.29.48s0,.62-.23.63-.21-.05-.24-.6,0-.5.18-.51"/><path class="cls-3" d="M13.1,10.58c.22,0,.27,0,.3.48s0,.62-.24.63-.21,0-.24-.6,0-.5.18-.51"/><path class="cls-3" d="M13.36,15.3c.22,0,.27,0,.3.48s0,.62-.24.63-.21-.05-.24-.6,0-.5.18-.51"/><path class="cls-3" d="M7.05,13.39a8.94,8.94,0,0,1-2.41.33c-.25,0,.06-.87-.07-1.25s-.39-.75,0-.76a11.3,11.3,0,0,1,2.22,0,5.73,5.73,0,0,1,.3,1.65m.65.14a10.54,10.54,0,0,1-.09-1.7c-.1-.69-.4-.79-.78-.78s-1.45-.14-2.26-.22a.61.61,0,0,0-.6.76,5.89,5.89,0,0,1-.09,1.65c-.09.69,0,1.06.31,1.3s2.87-.16,3.44-.19.23-.5.07-.82"/><path class="cls-3" d="M4.33,11.39c.47.61,1,1.08,1,1.21s-.81,1-.81,1l.13.46s.2.1.38-.18.65-1,.73-.93.75.88.75.88.8-.09.6-.24-1.08-.85-1-1,1-1.07,1-1.07-.58-.38-.77-.18-.46.9-.65.89S5,11.35,5,11.35Z"/><path class="cls-3" d="M9.88,11.81a11.41,11.41,0,0,1,2.22,0c.36,0,.08.37,0,.76s.18,1.21-.07,1.25a8.49,8.49,0,0,1-2.41-.35,5.72,5.72,0,0,1,.3-1.64M9,14.42c.56,0,3.16.43,3.43.2s.41-.61.32-1.3a5.45,5.45,0,0,1-.08-1.65.61.61,0,0,0-.6-.76c-.81.08-1.89.22-2.27.21s-.67.09-.77.78a11.3,11.3,0,0,1-.1,1.69c-.17.33-.5.79.07.83"/><path class="cls-3" d="M12.3,11.47c-.46.61-1,1.08-1,1.21s.81,1,.81,1l-.13.46s-.2.1-.39-.18S11,13,10.9,13s-.75.87-.75.87-.8-.09-.6-.24,1.08-.85,1-.95-1-1.08-1-1.08.59-.38.77-.17.46.9.65.88.75-.92.75-.92Z"/><path class="cls-4" d="M12.38,2.3C15.26,2.14,17,3.56,16.52,6c-.4,2.14-.66,2-.15,2.59.68.87.12,2.85.7,3.91S18.38,15,15.25,15.3c-2.08.22-4.07.66-4.75.19S8.9,10.09,10,8.86c.55-.64.44-.58,0-1.77S8.67,2.51,12.38,2.3"/><path class="cls-3" d="M12.59,3.56c1.32-.51,2.54,1.14,2.64,1.77A2.55,2.55,0,0,1,13.47,8a2.08,2.08,0,0,1-2.66-2.08,2.89,2.89,0,0,1,1.78-2.33"/><path class="cls-3" d="M13.18,8.63c1.21-.09,2,.38,2,1.37a7.14,7.14,0,0,0,.44,2.74c.34.58.73,1,.06,1.13a23.77,23.77,0,0,1-4.48.24c-.33-.16-.49-1.74-.47-2.61s-.09-2.7,2.42-2.87"/></g></svg>