<svg id="Layer_1" data-name="Layer 1" xmlns="http://www.w3.org/2000/svg" xmlns:xlink="http://www.w3.org/1999/xlink" viewBox="0 0 27.09 18.02"><defs><style>.cls-1{fill:none;}.cls-2{clip-path:url(#clip-path);}.cls-3{fill:#9a2f60;}</style><clipPath id="clip-path"><rect class="cls-1" width="27.03" height="18"/></clipPath></defs><title>skills-icons</title><g class="cls-2"><path class="cls-3" d="M13.91,4.21A6.73,6.73,0,0,1,19.8,2.74c1.6.4,3.53,2.34,4.12,5.14a6.35,6.35,0,0,1-2.33,6,7.56,7.56,0,0,1-7.42.76A11.9,11.9,0,0,1,8.64,10c-.89-1.33-.7-1.65,0-1.55s1.14,1.1,1.55,1.78a9.51,9.51,0,0,0,4.6,3.5,6.68,6.68,0,0,0,4.83-.36c1.9-1.18,2.52-2.22,2.54-4.05,0-2.41-.52-3.5-1.75-4.55A3.81,3.81,0,0,0,16.91,4,4.55,4.55,0,0,0,14,5.68c-.51.61-.74.72-1.23.34-.34-.26-.09-.87,1.16-1.81"/><path class="cls-3" d="M11,14.7a6.66,6.66,0,0,1-4,.92c-1.62,0-3.84-1.47-4.29-4.38A5.55,5.55,0,0,1,7.3,4.93c2.45-.22,4.31.27,5.54,2a10.12,10.12,0,0,1,1.68,3.41c.2.66-.59,1.51-.94.42a7.54,7.54,0,0,0-2.23-3.72A4.48,4.48,0,0,0,7.16,6a4.48,4.48,0,0,0-3.08,3.6A4.26,4.26,0,0,0,6.46,14a4.55,4.55,0,0,0,3.74,0c.82-.28.71-.36,1.15-.14s.7.32-.31.89"/><path class="cls-3" d="M24.91,11.53a6.43,6.43,0,0,1-4.21,4.32c-2.05.51-14.46.65-15.46.46a4.5,4.5,0,0,1-3.6-3.89A9.56,9.56,0,0,1,3.51,5.18c1.66-1.85,5.55-1.9,7.19-.73,1,.68,1,.68,1.61-.17A6.48,6.48,0,0,1,18,1.35c3.1-.14,4.64.34,6.21,3.1a8.93,8.93,0,0,1,.75,7.08m-.44-9.36C23.07.67,20.84-.09,17.57,0s-4.81,2-5.93,3.41c-.17.21-.16.19-.7-.19a6.93,6.93,0,0,0-4.39-1A7.87,7.87,0,0,0,1.1,5.69C-.49,8.14-.07,12.58.58,14.38s3.12,3.16,4.05,3.51,15.17-.2,16.94-.57c2.24-.47,4.3-3.2,5.22-6.24s-.92-7.42-2.32-8.91"/></g></svg>