<svg id="Layer_1" data-name="Layer 1" xmlns="http://www.w3.org/2000/svg" xmlns:xlink="http://www.w3.org/1999/xlink" viewBox="0 0 26.04 18"><defs><style>.cls-1{fill:none;}.cls-2{clip-path:url(#clip-path);}.cls-3{fill:#9a2f60;}</style><clipPath id="clip-path"><rect class="cls-1" width="26.04" height="18"/></clipPath></defs><title>skills-icons</title><g class="cls-2"><path class="cls-3" d="M10.37,5.36C9.7,7.4,6.64,7.81,5,6.86c-1.27-.74-1.35-1.54-1-3.07A2.78,2.78,0,0,1,6.91,1.5c1.78,0,4.06,2,3.46,3.86m.1-3.86C8.8-.57,5.45-.37,3.6,1.33a3.76,3.76,0,0,0-1,4c.44,1,.54,1.33-.72,2.75S-.46,10.53.21,11.12,1.94,10.06,3.28,8.9,4.59,8.05,6,8.6a5.36,5.36,0,0,0,4.65-.87c1.58-1,1.82-3.79-.15-6.23"/><path class="cls-3" d="M14.23,3.51c2.27.36,6.62.78,9,.88s2.12.54,2.18,1.72.22,6.82.55,8.77-.21,3-2.43,3c-2.64,0-13.45.32-15.79-.12s-2.63-.06-2.84-2.55a32.72,32.72,0,0,1,.11-5c0-.79.66-1.09.76,0a34.06,34.06,0,0,1-.1,3.68c0,1,.12,2.12,1.3,2.24s12,.13,14.55.19,2.81.21,2.84-1.95.17-6.34.11-7.47-.24-1.35-1.3-1.41-7.73.21-9.41-.51c-.72-.31-2-1.9.48-1.51"/><path class="cls-3" d="M13.16,7.87c0,.86-.09.66,1.36.66A47.91,47.91,0,0,1,20.26,9c1.57.23,2.93-.34,1.3-1.08s-8.4-1.3-8.4,0"/><path class="cls-3" d="M9,11.05a14.25,14.25,0,0,0,5.8.13,14.08,14.08,0,0,1,6,.37c2,.61,3.42-.61,1.19-1.06a26.84,26.84,0,0,0-8-.21c-1.56.18-3.67.24-4.56-.2s-2.19.49-.47,1"/><path class="cls-3" d="M8.78,14.37A73.75,73.75,0,0,1,21.2,15c2,.37,2.86-.41,1.23-1.06S9.82,12.71,8.78,12.83s-.88,1.63,0,1.54"/></g></svg>