<svg id="Layer_1" data-name="Layer 1" xmlns="http://www.w3.org/2000/svg" xmlns:xlink="http://www.w3.org/1999/xlink" viewBox="0 0 26.68 18"><defs><style>.cls-1{fill:none;}.cls-2{clip-path:url(#clip-path);}.cls-3{fill:#9a2f60;}</style><clipPath id="clip-path"><rect class="cls-1" width="26.68" height="18"/></clipPath></defs><title>skills-icons</title><g class="cls-2"><path class="cls-3" d="M19.46,16c-3.36,1.2-7.07.66-8.65-.7s-1.81-1-4.08-.44-6.2.44-4-.12,3.67-1.6,4-3-1.85-3.07.06-6.11C8.44,3,11.71,1.3,16.62,1.77c4.49.42,8.59,2.46,8.55,6.36A8.25,8.25,0,0,1,19.46,16M16.2,0C10.44-.25,5.48,2.75,4.57,6.82a11.5,11.5,0,0,0,.14,4.44c-.07.93-2.16,2.31-3.8,3.09s-.91,1.57,1,2.09a12.11,12.11,0,0,0,5.45-.15c2.24-.44,2.77-.13,3.87.61C13.88,18.71,23.84,19,26,12,28.63,3.64,23.13.34,16.2,0"/><path class="cls-3" d="M13.8,13.22a6.59,6.59,0,0,0,4.25.28c.92-.34,1.67-1.53-.45-.95s-5.67-.16-3.8.67"/><path class="cls-3" d="M10,9.77c1.25.74,3.49.94,6.55.72,1.85-.12,3.43.52,5.17.51,1.06,0,.73-.32.39-.9-.5-.85-6.22-1.17-9.61-.85-1.95.18-4.71-.8-2.5.52"/><path class="cls-3" d="M10.68,6.47c1.84,1.2,1.64,1.09,2.07.39s1.65-.64,2.69.08,2.94.48,4.25.25,2.9-.42,1.79-1.34-2.41-.33-3.86-.33S15,5.49,14.3,5s-1.66-.48-3.11,0-1.91.59-.51,1.51"/></g></svg>