<svg id="Layer_1" data-name="Layer 1" xmlns="http://www.w3.org/2000/svg" xmlns:xlink="http://www.w3.org/1999/xlink" viewBox="0 0 25.35 18"><defs><style>.cls-1{fill:none;}.cls-2{clip-path:url(#clip-path);}.cls-3{fill:#9a2f60;}</style><clipPath id="clip-path"><rect class="cls-1" width="25.35" height="18"/></clipPath></defs><title>skills-icons</title><g class="cls-2"><path class="cls-3" d="M14.49,2.06c-1.54,4.41-3.68,10-4.35,13-.53,2.41-.76,4.45.69,1.38A82.34,82.34,0,0,0,15.52,3.26c.8-3.39.19-4.68-1-1.2"/><path class="cls-3" d="M7.66,3.93A16.94,16.94,0,0,0,2,7.08C-.14,8.83-.61,9.84.83,11.5A11.3,11.3,0,0,0,7.08,15c2.12.41,2.12-1.12.75-1.43a9.58,9.58,0,0,1-4.92-2.43c-.76-.88-.71-1.72.61-2.85a13.71,13.71,0,0,1,4.19-2.7c2.47-1.06,1.45-2.26,0-1.66"/><path class="cls-3" d="M17.7,14.92a17.12,17.12,0,0,0,5.68-3.16C25.5,10,26,9,24.53,7.34a11.3,11.3,0,0,0-6.26-3.5c-2.11-.41-2.12,1.13-.74,1.43a9.43,9.43,0,0,1,4.91,2.44c.77.87.71,1.71-.61,2.84a13.41,13.41,0,0,1-4.19,2.7c-2.46,1.06-1.44,2.26.06,1.67"/></g></svg>