<svg id="Layer_1" data-name="Layer 1" xmlns="http://www.w3.org/2000/svg" xmlns:xlink="http://www.w3.org/1999/xlink" viewBox="0 0 26.84 18"><defs><style>.cls-1{fill:none;}.cls-2{clip-path:url(#clip-path);}.cls-3{fill:#9a2f60;}.cls-4{fill:#fff;}</style><clipPath id="clip-path"><rect class="cls-1" width="26.84" height="18"/></clipPath></defs><title>skills-icons</title><g class="cls-2"><path class="cls-3" d="M25,13.87c-.81.07-8.9.46-9.93.36s-9.77-.34-11-.34-1.72.15-1.76-1S2.21,2.63,2.19,2.06s-.48-.75,2.32-.75c2.1,0,9.19,0,10.55-.07a9.19,9.19,0,0,1,3.25.12,29.66,29.66,0,0,0,5.31.19c1.26-.05,1.5,0,1.45.71s.6,9.68.7,10.53,0,1-.77,1.08m1.7-1.11c-.11-1.24-.54-10.36-.43-11.7S26,0,22.87.16,4.86.29,3.39.25C1.11.2,1.6,1.14,1.6,1.91s0,10.66.08,11.65.55,1.22,1.89,1.27,6.15.07,8.34,0,5.39.19,6.63.22,6.52-.32,7.56-.52.71-.5.6-1.74"/><path class="cls-3" d="M4.92,2.4a54.29,54.29,0,0,0,6,.08c1.9-.14,9.66-.14,10.64-.1s2.15-.07,2.28.83.57,7,.69,7.76S25,12.39,24,12.42c-1.93.07-17.81.08-18.76.28s-1.43.12-1.55-.66A33.8,33.8,0,0,1,3.54,6.6c.14-1.39.16-3.13.16-3.73s0-.55,1.22-.47"/><path class="cls-3" d="M10.9,14.85l-.58,1.31c-.42.94-.85,1.66.41,1.79a30.71,30.71,0,0,0,4.68-.1c.92-.11,2.14.28,2.68.06s.35-.42.05-1.24-.87-1.35-.93-1.88c0-.31-1-.56-.81.11s.63,1.29.73,1.73,0,.52-.87.49-3.3,0-4.26,0-.8-.15-.69-.6.76-1.25.7-2.06c0-.65-1.11.37-1.11.37"/><path class="cls-4" d="M10.1,1.69c-1.9.07-8-.47-8.9-.52S.6,1.89.55,2.63.17,11.74.21,13s-.21,3.11.88,3c.87-.1,9.34.37,10.47.37.89,0,1.11-.58.91-2.15-.16-1.27-.12-9.87.13-12.39.08-.8-.61-.23-2.5-.16"/><path class="cls-3" d="M10.81,3.69c0,.55-.43,8.31-.36,9a7.47,7.47,0,0,0,.32,1.56c.12.31.31.54-.37.55s-7.74,0-8.46-.07-.91,0-1-.49S.58,7.34.56,5.65.5,2.88.94,3a31.08,31.08,0,0,0,3.17.37C5,3.39,9.19,3,9.93,3s.9,0,.88.68m-1-1.51c-1.77.07-8,0-8.84,0s-.89.23-.94.92,0,10.17,0,11.36.54,1.12,1.36,1.11,8.75.08,9.6.09.72-.57.6-1.75-.13-10.23,0-11,0-.77-1.76-.71"/><path class="cls-3" d="M2.23,3.92a16.59,16.59,0,0,0,3.42.21,25.66,25.66,0,0,1,3.8,0c.52.06.76-.06.68.75a56.58,56.58,0,0,0-.46,6.48c.2.66.26.93-.2,1.21a31.2,31.2,0,0,1-7.09-.06c-.59-.26-.68-.27-.73-1.06s.09-4.74,0-5.31a7.9,7.9,0,0,1-.3-1.76c0-.43.06-.53.92-.41"/><path class="cls-3" d="M5.71,13.48a.41.41,0,0,1,.72.2c0,.35-.15.65-.49.58a.44.44,0,0,1-.23-.78"/><path class="cls-4" d="M21.19,5.67c-.77.09-3.16,0-3.72,0a1.35,1.35,0,0,0-1.29,1.2c0,.57,0,2.39-.06,3.46a14.05,14.05,0,0,0,.25,2.76c.12.81.93.82,1.49.75s3.15,0,3.74.07a.94.94,0,0,0,1-1.14,27.71,27.71,0,0,1-.05-3.62,12.18,12.18,0,0,0,0-2.34,1.33,1.33,0,0,0-1.39-1.13"/><path class="cls-3" d="M21.25,7.51c0,.31-.06,1.2-.09,1.43s0,2.17,0,2.91,0,.86-.23.85-2.38-.06-2.73,0-.45.11-.5-.2-.12-2-.13-2.44,0-2.08,0-2.39,0-.35.28-.35,2.49,0,2.87-.06.49,0,.49.27m-.31-1c-.69.09-2.86,0-3.36,0s-.55.14-.54.66,0,2.16-.06,3.13a13.07,13.07,0,0,0,.23,2.5c.1.73.31.72.81.66a31.87,31.87,0,0,1,3.38.06c.53.05.48-.49.43-1.2a22.68,22.68,0,0,1,0-3.28,11.39,11.39,0,0,0,0-2.11c0-.46-.14-.5-.84-.42"/><path class="cls-3" d="M18.48,7.86a7.08,7.08,0,0,0,1.84,0c.42,0,.43-.11.42.26a17.79,17.79,0,0,0-.07,2.69c.12.56.13.7-.08.84s-.86-.07-1.16,0a2.79,2.79,0,0,1-1,0c-.15-.08-.2-.29-.2-.93s0-2.17,0-2.48-.05-.45.25-.38"/><path class="cls-3" d="M19.4,11.92c.33-.06.4-.08.42.16s-.1.45-.35.31-.36-.42-.07-.47"/></g></svg>